<svg xmlns="http://www.w3.org/2000/svg" width="82" height="82" viewBox="0 0 82 82" version="1.1">
	<path d="M 2 36 L 2 64 17.333 64 C 30.296 64, 32.667 64.232, 32.667 65.500 C 32.667 66.628, 31.458 67, 27.788 67 C 23.941 67, 22.390 67.519, 20.455 69.455 C 19.105 70.805, 18 72.830, 18 73.955 C 18 75.956, 18.496 76, 41 76 C 63.504 76, 64 75.956, 64 73.955 C 64 72.830, 62.895 70.805, 61.545 69.455 C 59.610 67.519, 58.059 67, 54.212 67 C 50.542 67, 49.333 66.628, 49.333 65.500 C 49.333 64.232, 51.704 64, 64.667 64 L 80 64 80 36 L 80 8 41 8 L 2 8 2 36 M 4 20.533 L 4 30.066 15.178 29.783 L 26.356 29.500 30.125 22.532 L 33.894 15.565 39.042 26.532 C 41.873 32.565, 44.627 38.622, 45.163 39.993 C 46.099 42.393, 46.255 42.262, 49.318 36.493 L 52.500 30.500 65.250 30.220 L 78 29.940 78 20.470 L 78 11 41 11 L 4 11 4 20.533 M 30.435 27.552 L 27.500 32.993 15.750 32.997 L 4 33 4 43 L 4 53 41 53 L 78 53 78 43 L 78 33 66.070 33 L 54.141 33 50.360 40 C 48.281 43.850, 46.314 47, 45.990 47 C 45.666 47, 42.952 41.560, 39.960 34.910 C 36.967 28.261, 34.260 22.660, 33.944 22.465 C 33.628 22.270, 32.049 24.559, 30.435 27.552 M 70.399 58.164 C 70.114 58.624, 71.334 59, 73.108 59 C 74.882 59, 76.024 58.691, 75.646 58.313 C 74.633 57.300, 70.996 57.197, 70.399 58.164" stroke="none" fill="#9945c5" fill-rule="evenodd"/>
</svg>