<svg xmlns="http://www.w3.org/2000/svg" width="82" height="82" viewBox="0 0 82 82" version="1.1">
	<path d="M 3.250 22.662 C 2.315 23.039, 2 27.682, 2 41.064 C 2 58.791, 2.021 58.967, 4.250 59.526 C 5.488 59.836, 15.117 59.957, 25.648 59.795 L 44.796 59.500 45.225 64.690 C 46.098 75.242, 54.812 82.753, 65.041 81.770 C 75.372 80.777, 82.891 71.867, 81.530 62.230 C 81.163 59.628, 80.637 49.857, 80.362 40.517 C 80.025 29.038, 79.480 23.290, 78.681 22.782 C 77.388 21.959, 5.275 21.845, 3.250 22.662 M 4 41 L 4 57 24.918 57 L 45.837 57 47.969 53.550 C 49.141 51.653, 51.610 49.168, 53.455 48.028 C 56.571 46.102, 56.732 45.750, 55.723 43.078 C 54.847 40.756, 54.966 39.701, 56.342 37.601 C 60.067 31.916, 69.241 35.920, 67.587 42.509 C 67.062 44.600, 67.409 45.205, 69.608 46.041 C 71.067 46.596, 73.552 47.969, 75.131 49.093 L 78 51.136 78 38.068 L 78 25 41 25 L 4 25 4 41 M 15.595 37.168 C 13.581 40.043, 13.581 41.957, 15.595 44.832 C 17.928 48.162, 23.856 47.544, 25.969 43.750 C 27.344 41.280, 27.344 40.720, 25.969 38.250 C 23.856 34.456, 17.928 33.838, 15.595 37.168 M 36.655 36.829 C 34.469 39.244, 34.552 43.284, 36.829 45.345 C 40.793 48.933, 47 46.175, 47 40.826 C 47 35.705, 40.089 33.034, 36.655 36.829 M 66.015 60.485 L 60.597 65.970 58.352 63.861 C 56.245 61.881, 56.002 61.855, 54.418 63.439 C 52.835 65.023, 52.936 65.339, 56.061 68.563 C 57.893 70.454, 59.879 72, 60.473 72 C 61.067 72, 64.655 68.875, 68.445 65.055 C 74.342 59.113, 75.150 57.886, 74.046 56.555 C 73.336 55.700, 72.457 55, 72.093 55 C 71.729 55, 68.994 57.468, 66.015 60.485" stroke="none" fill="#9948c5" fill-rule="evenodd"/>
</svg>