<svg xmlns="http://www.w3.org/2000/svg" width="82" height="82" viewBox="0 0 82 82" version="1.1">
	<path d="M 36.200 3.200 C 35.540 3.860, 35 5.162, 35 6.093 C 35 7.024, 34.354 8.034, 33.565 8.337 C 32.776 8.639, 31.641 9.802, 31.042 10.921 C 29.542 13.725, 32.850 17, 37.184 17 C 38.936 17, 42.980 17.733, 46.171 18.628 C 51.662 20.169, 51.940 20.397, 51.346 22.878 C 51.001 24.320, 50.579 25.666, 50.408 25.868 C 50.237 26.071, 47.254 25.671, 43.778 24.980 C 35.016 23.239, 27.770 25.298, 22.626 30.992 C 19.712 34.217, 18.321 35, 15.503 35 C 11.133 35, 8 37.924, 8 42 C 8 46.823, 11.684 49.622, 17.276 49.048 C 18.252 48.948, 20.364 49.970, 21.967 51.319 C 23.571 52.668, 27.189 54.326, 30.007 55.002 L 35.132 56.231 33.181 58.366 C 27.952 64.086, 30.299 68.531, 39.314 69.981 C 45.512 70.978, 50.043 73.287, 53.941 77.438 C 56.842 80.525, 59.542 80.725, 61.020 77.962 C 62.296 75.579, 61.548 72.684, 58.609 68.626 C 57.158 66.621, 56.874 65.581, 57.700 65.290 C 65.381 62.580, 69.979 50.388, 67.103 40.359 L 66.206 37.231 71.753 36.771 C 78.608 36.202, 80.353 34.333, 79.702 28.256 C 79.186 23.439, 75.661 18.213, 71.429 15.990 C 69.869 15.170, 65.789 12.631, 62.362 10.346 C 51.774 3.289, 39.472 -0.072, 36.200 3.200 M 37.636 5.780 C 36.879 7.004, 39.209 8, 42.832 8.001 C 44.299 8.001, 48.399 9.373, 51.941 11.049 C 55.484 12.725, 59.499 13.962, 60.864 13.798 C 62.859 13.558, 61.808 12.732, 55.507 9.587 C 47.686 5.684, 38.858 3.803, 37.636 5.780 M 33.694 11.639 C 32.429 12.904, 34.181 14, 37.470 14 C 39.313 14, 43.641 14.878, 47.087 15.950 C 53.145 17.835, 55.636 17.838, 54.474 15.958 C 52.937 13.471, 35.488 9.845, 33.694 11.639 M 10.250 17.250 C 10.836 19.008, 28.164 19.008, 28.750 17.250 C 29.064 16.307, 26.789 16, 19.500 16 C 12.211 16, 9.936 16.307, 10.250 17.250 M 58.500 18.155 C 53.329 20.983, 52.344 27.435, 56.455 31.545 C 58.622 33.713, 59.782 34, 66.373 34 C 75.905 34, 77.001 33.551, 76.996 29.643 C 76.986 20.841, 66.030 14.036, 58.500 18.155 M 6 23.500 C 6 24.831, 7.171 25.040, 13.250 24.794 C 17.238 24.632, 20.500 24.050, 20.500 23.500 C 20.500 22.950, 17.238 22.368, 13.250 22.206 C 7.171 21.960, 6 22.169, 6 23.500 M 65.930 23.584 C 64.151 25.728, 65.943 28.500, 69.109 28.500 C 70.868 28.500, 71.589 27.869, 71.837 26.113 C 72.372 22.335, 68.384 20.628, 65.930 23.584 M 31.684 28.449 C 26.865 30.167, 24.094 32.625, 22.362 36.718 C 18.979 44.711, 21.795 49.636, 31.336 52.409 C 36.118 53.799, 37 54.417, 37 56.373 C 37 57.647, 36.100 59.505, 35 60.500 C 33.900 61.495, 33 62.899, 33 63.620 C 33 65.331, 36.193 67, 39.466 67 C 43.362 67, 48.802 69.588, 53.137 73.505 C 58.784 78.607, 60.600 77.994, 57.515 72.029 C 55.585 68.296, 50.920 65.024, 46.510 64.308 C 42.469 63.652, 41.643 61, 45.480 61 C 46.844 61, 49.773 60.274, 51.989 59.388 C 59.461 56.398, 57.879 49.478, 49.410 48.102 C 47.350 47.767, 45.456 46.867, 45.200 46.101 C 44.831 44.994, 45.724 44.822, 49.586 45.257 C 53.363 45.683, 55.050 46.492, 57.218 48.917 C 61.424 53.626, 60.767 57.340, 55.027 61.296 C 52.699 62.901, 52.676 63, 54.643 63 C 57.591 63, 61.996 59.253, 63.621 55.364 C 65.056 51.931, 65.301 44.294, 64.113 40.033 C 63.614 38.243, 62.481 37.373, 59.977 36.861 C 57.938 36.444, 55.318 34.796, 53.565 32.828 C 49.022 27.727, 39.213 25.764, 31.684 28.449 M 2.710 28.623 C 0.891 30.442, 2.494 31.072, 8.250 30.798 C 11.765 30.630, 14.396 30.062, 14.262 29.500 C 13.985 28.341, 3.768 27.565, 2.710 28.623 M 12.750 38.067 C 10.245 39.545, 10.454 44.638, 13.078 46.042 C 16.603 47.928, 18.153 46.528, 17.808 41.768 C 17.481 37.260, 15.979 36.161, 12.750 38.067" stroke="none" fill="#9945c5" fill-rule="evenodd"/>
</svg>