<svg xmlns="http://www.w3.org/2000/svg" width="82" height="82" viewBox="0 0 82 82" version="1.1">
	<path d="M 40.662 3 C 40.383 3.825, 39.385 6.975, 38.443 10 C 36.499 16.243, 31.386 28, 30.614 28 C 30.332 28, 29.308 25.482, 28.338 22.404 C 26.594 16.870, 26.555 16.832, 24.844 18.945 C 20.553 24.244, 17.262 37.668, 18.847 43.408 L 19.839 47 11.919 47 L 4 47 4 62.500 L 4 78 41 78 L 78 78 78 62.500 L 78 47 70.070 47 L 62.140 47 63.101 43.750 C 65.700 34.968, 59.913 21.280, 48.518 9.255 C 43.342 3.793, 41.019 1.944, 40.662 3 M 40.488 26.119 C 39.481 30.791, 37.832 33.775, 33.082 39.524 C 30.837 42.241, 29 45.034, 29 45.732 C 29 46.686, 31.974 47, 41 47 C 52.952 47, 53 46.990, 53 44.634 C 53 41.852, 47.020 29.756, 43.599 25.619 L 41.216 22.738 40.488 26.119 M 7 55.500 L 7 61 19.500 61 L 32 61 32 55.500 L 32 50 19.500 50 L 7 50 7 55.500 M 35 55.500 L 35 61 48 61 L 61 61 61 55.500 L 61 50 48 50 L 35 50 35 55.500 M 64 55.500 L 64 61 69.500 61 L 75 61 75 55.500 L 75 50 69.500 50 L 64 50 64 55.500 M 7 69.500 L 7 75 12.500 75 L 18 75 18 69.500 L 18 64 12.500 64 L 7 64 7 69.500 M 21 69.500 L 21 75 34 75 L 47 75 47 69.500 L 47 64 34 64 L 21 64 21 69.500 M 50 69.500 L 50 75 62.500 75 L 75 75 75 69.500 L 75 64 62.500 64 L 50 64 50 69.500" stroke="none" fill="#9945c5" fill-rule="evenodd"/>
</svg>