<svg xmlns="http://www.w3.org/2000/svg" width="82" height="82" viewBox="0 0 82 82" version="1.1">
	<path d="M 26.892 4.354 C 16.766 8.520, 9.665 15.219, 5.135 24.880 C 2.811 29.836, 2.500 31.743, 2.500 41.021 C 2.500 50.864, 2.709 51.966, 5.741 58.126 C 9.645 66.055, 16.797 73.078, 24.782 76.820 C 29.848 79.195, 31.699 79.500, 41.021 79.500 C 50.864 79.500, 51.966 79.291, 58.126 76.259 C 71.278 69.784, 79.173 57.811, 79.828 43.345 C 80.184 35.483, 78.032 23.956, 76.222 24.029 C 75.825 24.045, 74.044 25.383, 72.264 27.002 C 69.438 29.574, 69.154 30.274, 70.014 32.538 C 71.532 36.529, 71.185 46.101, 69.324 51.572 C 67.045 58.274, 58.274 67.045, 51.572 69.324 C 39.904 73.292, 28.540 70.688, 19.926 62.074 C 11.312 53.460, 8.708 42.096, 12.676 30.428 C 14.955 23.726, 23.726 14.955, 30.428 12.676 C 40.093 9.389, 52.183 11.136, 58.878 16.787 L 62.094 19.500 51.555 29.974 L 41.016 40.448 35.711 35.208 L 30.405 29.968 27.702 32.789 C 26.216 34.340, 25 36.045, 25 36.578 C 25 37.111, 28.605 41.130, 33.010 45.510 L 41.020 53.473 60.749 33.745 L 80.478 14.016 77.241 10.779 L 74.003 7.542 71.377 10.169 L 68.750 12.796 64.409 9.483 C 54.311 1.775, 38.438 -0.395, 26.892 4.354 M 39.180 14.250 C 39.356 15.488, 40.175 16.500, 41 16.500 C 41.825 16.500, 42.644 15.488, 42.820 14.250 C 43.065 12.518, 42.646 12, 41 12 C 39.354 12, 38.935 12.518, 39.180 14.250 M 12 41 C 12 42.646, 12.518 43.065, 14.250 42.820 C 15.488 42.644, 16.500 41.825, 16.500 41 C 16.500 40.175, 15.488 39.356, 14.250 39.180 C 12.518 38.935, 12 39.354, 12 41 M 65.500 40 C 64.577 41.494, 65.861 43, 68.059 43 C 69.333 43, 70 42.313, 70 41 C 70 38.879, 66.653 38.135, 65.500 40 M 39.688 65.646 C 38.147 67.186, 39.040 70, 41.070 70 C 42.625 70, 43.060 69.461, 42.820 67.828 C 42.488 65.573, 40.880 64.453, 39.688 65.646" stroke="none" fill="#9945c5" fill-rule="evenodd"/>
</svg>