<svg xmlns="http://www.w3.org/2000/svg" width="82" height="82" viewBox="0 0 82 82" version="1.1">
	<path d="M 22.204 8.072 C 12.216 13.147, 8.050 24.942, 10.945 39.945 C 11.904 44.916, 10.997 48.294, 7.778 51.729 L 5.690 53.959 10.095 55.958 C 12.518 57.057, 15.175 57.986, 16 58.022 C 16.825 58.059, 15.867 58.951, 13.871 60.006 C 7.591 63.325, 2 71.548, 2 77.468 L 2 80 23.941 80 C 37.490 80, 46.118 80.382, 46.500 81 C 47.430 82.505, 79.281 82.319, 80.800 80.800 C 82.482 79.118, 82.482 47.882, 80.800 46.200 C 79.992 45.392, 75.422 45, 66.800 45 C 52.113 45, 52.994 45.796, 55.100 34.434 C 57.097 23.663, 53.160 14.009, 46.093 12.351 C 44.667 12.016, 42.263 10.592, 40.751 9.185 C 36.836 5.543, 28.201 5.024, 22.204 8.072 M 37.226 28.636 C 34.875 30.441, 31.275 32.212, 29.226 32.571 C 22.494 33.751, 21 35.353, 21 41.388 C 21 47.759, 22.978 50.784, 28.882 53.447 C 32.841 55.232, 32.988 55.226, 37.521 53.095 C 43.567 50.253, 45.334 46.256, 44.838 36.545 C 44.628 32.440, 43.856 28.635, 42.989 27.427 C 41.507 25.364, 41.480 25.370, 37.226 28.636 M 25 56.826 C 25 59.687, 29.218 63, 32.860 63 C 36.336 63, 41 59.302, 41 56.545 C 41 54.640, 40.940 54.640, 36.111 56.572 C 32.537 58.002, 31.905 58.002, 29.140 56.572 C 25.295 54.584, 25 54.602, 25 56.826 M 66.984 61.516 L 61.597 66.970 59.278 64.792 C 57.224 62.862, 56.788 62.783, 55.470 64.101 C 54.152 65.419, 54.386 65.982, 57.514 69.013 L 61.046 72.437 68.088 65.395 C 73.821 59.662, 74.873 58.140, 73.750 57.208 C 72.654 56.298, 71.262 57.185, 66.984 61.516 M 16.020 62.250 C 11.136 64.745, 6.477 70.035, 5.452 74.250 L 4.783 77 24.892 77 L 45 77 45 68.500 C 45 59.296, 44.314 58.361, 40.669 62.598 C 39.069 64.458, 37.139 65.343, 33.879 65.710 C 29.837 66.166, 28.925 65.873, 25.780 63.112 C 23.831 61.400, 21.828 60, 21.330 60 C 20.832 60, 18.442 61.013, 16.020 62.250" stroke="none" fill="#9945c2" fill-rule="evenodd"/>
</svg>